<?xml version="1.0" encoding="UTF-8"?> <!-- Creator: CorelDRAW X7 --> <svg xmlns="http://www.w3.org/2000/svg" xmlns:xlink="http://www.w3.org/1999/xlink" xml:space="preserve" width="2480px" height="2480px" style="shape-rendering:geometricPrecision; text-rendering:geometricPrecision; image-rendering:optimizeQuality; fill-rule:evenodd; clip-rule:evenodd" viewBox="0 0 1672535 1672535"> <defs> <style type="text/css"> <![CDATA[ .fil0 {fill:#FEFEFE} ]]> </style> </defs> <g id="Слой_x0020_1"> <metadata id="CorelCorpID_0Corel-Layer"></metadata> <g id="_2516786891600"> <g> <g> <g> <g> <path class="fil0" d="M836268 0c-461830,0 -836268,374438 -836268,836268 0,461829 374438,836267 836268,836267 461829,0 836267,-374438 836267,-836267 0,-461932 -374438,-836268 -836267,-836268zm513779 1023486c-5646,69618 -58539,158474 -132443,171331 -236769,18397 -517336,16100 -762570,0 -76517,-9618 -126801,-101815 -132443,-171331 -11918,-146136 -11918,-229345 0,-375485 5646,-69516 57181,-161190 132443,-169553 242412,-20384 524550,-15994 762570,0 85090,3136 126800,90839 132443,160458 11710,146139 11710,238443 0,384580z"></path> <polygon class="fil0" points="731733,1045334 1045334,836268 731733,627201 "></polygon> </g> </g> </g> <g> </g> <g> </g> <g> </g> <g> </g> <g> </g> <g> </g> <g> </g> <g> </g> <g> </g> <g> </g> <g> </g> <g> </g> <g> </g> <g> </g> <g> </g> </g> <g> </g> <g> </g> <g> </g> <g> </g> <g> </g> <g> </g> <g> </g> <g> </g> <g> </g> <g> </g> <g> </g> <g> </g> <g> </g> <g> </g> <g> </g> </g> </g> </svg> 